<svg width="24" height="24" viewBox="0 0 39 41" xmlns="http://www.w3.org/2000/svg" class="text-primary" fill="currentColor"><path d="M17.0328 12.3023L16.6733 12.5077C13.8487 18.0541 10.0613 23.3694 7.26242 28.9029C7.08267 29.2624 6.77454 29.7631 6.6975 30.1355C6.01705 33.4479 9.84302 35.6176 12.3594 33.358L26.7903 8.63039C29.281 6.03695 33.5435 8.39929 32.4137 11.9428C27.7532 19.6975 23.6319 28.0812 18.8045 35.6947C11.9101 46.5949 -3.35531 38.9557 0.663249 27.1825C4.32232 20.9814 7.64758 14.2923 11.4864 8.21955C13.3865 5.21526 16.5321 3.72595 19.8958 5.63894C21.1797 6.37075 22.7717 8.5662 23.311 9.92711C23.388 10.1197 23.5036 10.2866 23.4394 10.5305L19.7418 16.8601L17.0456 12.3023H17.0328Z"></path><path d="M29.7436 21.0325L38.4483 36.2723C39.9376 39.7901 35.3285 42.6917 32.8249 39.7131L25.7764 27.6189L29.2429 21.3792L29.7307 21.0325H29.7436Z"></path><path d="M33.5695 0.00244302C37.0745 -0.125945 38.2814 4.84269 35.0717 6.2678C30.0388 8.5146 28.3056 0.207865 33.5695 0.00244302Z"></path></svg>